# xmcd CD database file
#
# Track frame offsets:
#	150
#	3552
#	4108
#	21862
#	42496
#	58387
#	77189
#	97956
#	119390
#	131430
#	144032
#	164682
#	166350
#	184109
#	202984
#	218186
#	221924
#	244939
#	265229
#	280769
#	299680
#
# Disc length: 4044 seconds
#
# Revision: 0
# Processed by: cddbd v1.5.2PL0 Copyright (c) Steve Scherf et al.
# Submitted via: CDex 1.51
#
DISCID=3f0fca15
DTITLE=J.Dustin Sommers - Blues Take Me Home...
DYEAR=2005
DGENRE=Blues
TTITLE0=Clouds, Prologue
TTITLE1=Count Down
TTITLE2=Going Down Slow
TTITLE3=Mean Old World
TTITLE4=Special Rider
TTITLE5=Clouds
TTITLE6=Crow Jane
TTITLE7=Catfish Blues
TTITLE8=Still Sittin' ( On Top Of This World )
TTITLE9=Back Way To Nowhere
TTITLE10=Blues, Take Me Home
TTITLE11=Bloopers Deluxe
TTITLE12=Mean Old World, Duo with Red and Dusty
TTITLE13=Crow Jane Electric
TTITLE14=Blues Take Me Home with Tin Whistle
TTITLE15=Two Trains
TTITLE16=Me And My Black Dogs
TTITLE17=Shodows In The Rain
TTITLE18=Sun Gonna Shine
TTITLE19=Interview with 'Midnight Rose' 
TTITLE20=Red`s Riff
EXTD=YEAR: 2005
EXTT0=
EXTT1=
EXTT2=
EXTT3=
EXTT4=
EXTT5=
EXTT6=
EXTT7=
EXTT8=
EXTT9=
EXTT10=
EXTT11=
EXTT12=
EXTT13=
EXTT14=
EXTT15=
EXTT16=
EXTT17=
EXTT18=
EXTT19=
EXTT20=
PLAYORDER=
